<svg xmlns="http://www.w3.org/2000/svg" viewBox="0 0 1800 1200" preserveAspectRatio="xMidYMid slice"><defs><radialGradient id="g" cx="35%" cy="40%" r="70%"><stop offset="0" stop-color="#31436f"/><stop offset=".45" stop-color="#0d1730"/><stop offset="1" stop-color="#03050d"/></radialGradient><radialGradient id="star" cx="50%" cy="50%" r="50%"><stop offset="0" stop-color="#fff7d2"/><stop offset=".35" stop-color="#ffbf5c"/><stop offset="1" stop-color="#ff8a00" stop-opacity="0"/></radialGradient><filter id="blur"><feGaussianBlur stdDeviation="1.2"/></filter></defs><rect width="1800" height="1200" fill="url(#g)"/><g opacity=".7"><circle cx="120" cy="80" r="2" fill="#fff"/><circle cx="340" cy="160" r="1.5" fill="#fff"/><circle cx="640" cy="85" r="1" fill="#fff"/><circle cx="980" cy="140" r="2" fill="#fff"/><circle cx="1380" cy="90" r="1.5" fill="#fff"/><circle cx="1600" cy="220" r="2" fill="#fff"/><circle cx="210" cy="420" r="1.5" fill="#fff"/><circle cx="470" cy="690" r="1" fill="#fff"/><circle cx="820" cy="520" r="2" fill="#fff"/><circle cx="1220" cy="770" r="1.5" fill="#fff"/><circle cx="1510" cy="540" r="1" fill="#fff"/><circle cx="1690" cy="930" r="2" fill="#fff"/></g><g transform="translate(620 565)" filter="url(#blur)"><ellipse rx="265" ry="78" fill="none" stroke="#8ee7ff" stroke-width="3" opacity=".42"/><ellipse rx="410" ry="118" fill="none" stroke="#8ee7ff" stroke-width="2.5" opacity=".32"/><ellipse rx="575" ry="168" fill="none" stroke="#8ee7ff" stroke-width="2" opacity=".26"/><ellipse rx="735" ry="218" fill="none" stroke="#8ee7ff" stroke-width="2" opacity=".18"/><circle r="155" fill="url(#star)" opacity=".55"/><circle r="42" fill="#fff4c8"/><circle cx="258" cy="-16" r="22" fill="#62d4ff"/><circle cx="505" cy="112" r="30" fill="#6ee6be"/><circle cx="-332" cy="58" r="17" fill="#c790ff"/><circle cx="-625" cy="-152" r="25" fill="#eaa15a"/></g><rect width="1800" height="1200" fill="#000" opacity=".42"/></svg>
